# xmcd
#
# Track frame offsets:
#	150
#	16405
#	28476
#	37422
#	48513
#	57283
#	66278
#	71169
#	81101
#	97809
#	102407
#	115660
#	118175
#	130939
#	139492
#	155688
#	171759
#	193901
#	211339
#	217368
#	227498
#	245202
#	251827
#
# Disc length: 3446 seconds
#
# Revision: 1
# Processed by: cddbd v1.5.2PL0 Copyright (c) Steve Scherf et al.
# Submitted via: audiograbber 1.83.01
#
DISCID=700d7417
DTITLE=K.R. Wood's - The Fathers Of Texas
DYEAR=2002
DGENRE=Texas History
TTITLE0=Red Steagall - Lone Star Dream
TTITLE1=Red Steagall - Fathers Of Texas
TTITLE2=Gary P. Nunn - The Old 300
TTITLE3=Delbert McClinton - Come And Take It
TTITLE4=Skeet Anglin - Texas Ragtag Army
TTITLE5=Steve Fromholz - Who Will Go With Ol' Ben Milam
TTITLE6=Durango Ron Wood - Ben Milam Poem
TTITLE7=Ray Wylie Hubbard - Santa Anna:Nepoleon Of The West
TTITLE8=Delbert McClinton - Old Alamo
TTITLE9=Guich Kooch - Travis's Letter
TTITLE10=Reg Lindsey-John Guthrie - Bonham's Last Ride
TTITLE11=Guich Kooch - Line In The Dust
TTITLE12=Tom T. Hall-C B Staubblefield - Three Men Stood Tall
TTITLE13=Townes Van Zandt - Will You Come To The Bower
TTITLE14=Ray Wylie Hubbard - Deguello
TTITLE15=Eliza Gilkyson - Mother Of The Alamo
TTITLE16=Alex Harvey - Men Of Goliad
TTITLE17=Townes Van Zandt - Brazos River Song
TTITLE18=Ray Wylie Hubbard - General Sam Houston
TTITLE19=Rusty Wier - When Are We Gonna Fight
TTITLE20=Red Steagall - Remember The Alamo
TTITLE21=Charles John Quarto - Alamo Poem
TTITLE22=Durango Ron Wood - Fathers Of Texas-Poem
EXTD=
EXTT0=
EXTT1=
EXTT2=
EXTT3=
EXTT4=
EXTT5=
EXTT6=
EXTT7=
EXTT8=
EXTT9=
EXTT10=
EXTT11=
EXTT12=
EXTT13=
EXTT14=
EXTT15=
EXTT16=
EXTT17=
EXTT18=
EXTT19=
EXTT20=
EXTT21=
EXTT22=
PLAYORDER=
